<svg width="148" height="146" viewBox="0 0 148 146" fill="none" xmlns="http://www.w3.org/2000/svg">
<path d="M81.8809 38.3018L82.3262 40.2188L83.6123 38.7285L106.338 12.3848L97.5674 46.0527L97.0713 47.957L98.9023 47.2354L131.267 34.4707L107.855 60.207L106.531 61.6621L108.488 61.874L143.078 65.6113L110.388 77.5205L108.539 78.1934L110.173 79.29L139.062 98.6748L104.584 94.0273L102.634 93.7646L103.571 95.4951L120.142 126.084L91.7734 105.946L90.1689 104.808L90.1953 106.775L90.6523 141.562L74.8916 110.547L74 108.793L73.1084 110.547L57.3467 141.562L57.8047 106.775L57.8311 104.808L56.2266 105.946L27.8574 126.084L44.4287 95.4951L45.3662 93.7646L43.416 94.0273L8.93652 98.6748L37.8271 79.29L39.4609 78.1934L37.6123 77.5205L4.9209 65.6113L39.5117 61.874L41.4688 61.6621L40.1445 60.207L16.7324 34.4707L49.0977 47.2354L50.9287 47.957L50.4326 46.0527L41.6611 12.3848L64.3877 38.7285L65.6738 40.2188L66.1191 38.3018L74 4.41309L81.8809 38.3018Z" stroke="#6A6C8E" stroke-width="2"/>
</svg>
